<?xml version="1.0" encoding="UTF-8"?>
<svg version="1.1" xmlns="http://www.w3.org/2000/svg" width="500" height="500">
<path d="M0 0 C165 0 330 0 500 0 C500 165 500 330 500 500 C335 500 170 500 0 500 C0 335 0 170 0 0 Z " fill="#FEFEFE" transform="translate(0,0)"/>
<path d="M0 0 C0.9255368 -0.00671722 1.85107361 -0.01343445 2.80465698 -0.02035522 C5.87145323 -0.03938808 8.93803114 -0.04326243 12.00488281 -0.04541016 C14.13617035 -0.05183564 16.267457 -0.05856381 18.39874268 -0.06558228 C22.87099247 -0.07756914 27.34316495 -0.08126177 31.81542969 -0.08007812 C37.53982077 -0.07987514 43.26371425 -0.10715016 48.98798752 -0.14162254 C53.39241806 -0.16388931 57.79672896 -0.16791569 62.20121002 -0.16685867 C64.31108562 -0.16921601 66.42096445 -0.17804695 68.53078461 -0.19352341 C71.48701996 -0.21317344 74.44218398 -0.20734835 77.3984375 -0.1953125 C78.70012375 -0.21217102 78.70012375 -0.21217102 80.02810669 -0.22937012 C88.52542839 -0.14169508 93.78540556 3.70579197 99.95800781 9.29052734 C101.5897016 12.55391492 101.43812568 15.75967025 100.95800781 19.29052734 C99.7386952 22.78355361 98.06729702 25.9941729 96.35229492 29.26733398 C95.61836769 30.71525581 95.61836769 30.71525581 94.86961365 32.19242859 C93.80936664 34.27923008 92.74177205 36.36231138 91.66764641 38.44200325 C89.96795843 41.73437486 88.28900051 45.03658477 86.61512756 48.34214783 C82.45554507 56.54652305 78.26291375 64.73392144 74.06744385 72.91998291 C70.51942 79.84505152 66.98587575 86.7771152 63.47223091 93.71969414 C61.81843786 96.97269052 60.14363655 100.21428368 58.46800232 103.45606995 C57.45568849 105.45119981 56.44440716 107.44685401 55.43432617 109.44311523 C54.96319397 110.3404538 54.49206177 111.23779236 54.00665283 112.162323 C51.43462488 117.31135142 50.36028968 120.50716709 51.95800781 126.29052734 C52.86848673 128.88155664 53.8183762 131.36650852 54.88769531 133.88818359 C55.1893309 134.61783325 55.49096649 135.34748291 55.80174255 136.09924316 C56.80467416 138.52035837 57.81888198 140.93658213 58.83300781 143.35302734 C59.55279935 145.08503667 60.27177474 146.81738537 60.98999023 148.55004883 C62.51854721 152.23471527 64.05141135 155.9175476 65.58740234 159.59912109 C67.93102488 165.22005634 70.25750352 170.84796512 72.57910156 176.47802734 C72.96294006 177.40876572 73.34677856 178.33950409 73.74224854 179.29844666 C74.52368289 181.19333013 75.30509554 183.08822254 76.08648682 184.98312378 C78.08939725 189.83790238 80.09600826 194.69115046 82.10253906 199.54443359 C86.49502169 210.16959272 90.88472769 220.79589675 95.27352905 231.4225769 C97.25156365 236.21194534 99.22979582 241.00123217 101.20800781 245.79052734 C101.99967542 247.70719362 102.79134209 249.62386029 103.58300781 251.54052734 C103.97488281 252.48927734 104.36675781 253.43802734 104.77050781 254.41552734 C108.33300781 263.04052735 108.33300781 263.04052735 109.52026367 265.91496277 C110.31271921 267.83352165 111.10519972 269.75207022 111.89770508 271.67060852 C113.8650059 276.43324045 115.83188631 281.1960451 117.79785156 285.95922852 C121.50126143 294.93065407 125.20905331 303.90020137 128.93078613 312.86404419 C130.68581199 317.09173757 132.43857367 321.32036797 134.19116211 325.54907227 C135.02613088 327.5619118 135.86220511 329.57429317 136.69946289 331.58618164 C137.86137695 334.37839827 139.01944786 337.17218115 140.17675781 339.96630859 C140.51650635 340.77989334 140.85625488 341.59347809 141.20629883 342.43171692 C148.43217963 359.92298872 148.43217963 359.92298872 145.95800781 366.29052734 C142.51640973 371.44820994 138.34898383 375.22947007 132.95800781 378.29052734 C130.16030375 378.65380072 127.77310003 378.80224765 124.98713684 378.74859619 C123.80657415 378.75006303 123.80657415 378.75006303 122.60216171 378.7515595 C119.96749839 378.75002011 117.33394512 378.71987036 114.69946289 378.68994141 C112.80151342 378.6831824 110.90355675 378.67823875 109.00559807 378.6749649 C103.81754139 378.66111295 98.62991535 378.62267913 93.44202399 378.58031368 C87.90068463 378.53945717 82.35927307 378.52156109 76.81782532 378.50177002 C68.58845284 378.47041608 60.35917063 378.43172242 52.12987465 378.38435531 C36.67069759 378.29570147 21.21185052 378.25938617 5.75244141 378.24560547 C-15.48157189 378.22522136 -36.71533308 378.17829147 -57.94923592 378.10655975 C-70.0227213 378.06622337 -82.09613105 378.03399209 -94.16967773 378.01953125 C-105.00043817 378.006548 -115.83105796 377.97978702 -126.66173905 377.93591428 C-132.31335024 377.91345726 -137.96478953 377.89760827 -143.61644936 377.89864349 C-148.84382619 377.89938494 -154.07080633 377.88164511 -159.29808044 377.84935951 C-161.20650614 377.8408407 -163.11497621 377.83912399 -165.0234127 377.84472466 C-167.62421419 377.85134645 -170.22374386 377.83349767 -172.82441711 377.80950928 C-173.95173759 377.8211499 -173.95173759 377.8211499 -175.10183221 377.83302569 C-181.64621695 377.72597375 -185.08139957 375.11433443 -189.72949219 370.79052734 C-190.49261719 369.96552734 -191.25574219 369.14052734 -192.04199219 368.29052734 C-192.61949219 367.69240234 -193.19699219 367.09427734 -193.79199219 366.47802734 C-195.67620384 363.18065695 -196.19438783 360.03325431 -196.04199219 356.29052734 C-194.94448292 352.70706173 -193.26714948 349.48455454 -191.54199219 346.16552734 C-191.04860352 345.17689697 -190.55521484 344.1882666 -190.046875 343.16967773 C-188.96720015 341.01149363 -187.87859136 338.85776143 -186.78222656 336.70800781 C-184.99869741 333.20550486 -183.24270859 329.68993994 -181.49511719 326.16943359 C-177.3759043 317.88143108 -173.21964878 309.61216212 -169.06298828 301.34289551 C-166.80357773 296.84748068 -164.54616474 292.35107119 -162.29199219 287.85302734 C-161.81880554 286.90893509 -161.81880554 286.90893509 -161.33605957 285.94577026 C-157.32304449 277.93225337 -153.38222235 269.88859118 -149.54199219 261.79052734 C-145.39691587 253.0496209 -141.1264696 244.37608746 -136.79199219 235.72802734 C-136.47685669 235.09919647 -136.16172119 234.4703656 -135.83703613 233.82247925 C-133.24924617 228.66082901 -130.65619538 223.50182559 -128.06298828 218.34289551 C-125.80357773 213.84748068 -123.54616474 209.35107119 -121.29199219 204.85302734 C-120.81880554 203.90893509 -120.81880554 203.90893509 -120.33605957 202.94577026 C-116.32304449 194.93225337 -112.38222235 186.88859118 -108.54199219 178.79052734 C-104.39691587 170.0496209 -100.1264696 161.37608746 -95.79199219 152.72802734 C-95.47685669 152.09919647 -95.16172119 151.4703656 -94.83703613 150.82247925 C-92.24924617 145.66082901 -89.65619538 140.50182559 -87.06298828 135.34289551 C-84.80357773 130.84748068 -82.54616511 126.351071 -80.29199219 121.85302734 C-79.97663828 121.22384022 -79.66128437 120.59465309 -79.33637428 119.94639969 C-74.86102242 111.00965633 -70.49758952 102.02502027 -66.21488953 92.99423218 C-62.53824957 85.2675037 -58.73942573 77.60402736 -54.90527344 69.95458984 C-54.59739773 69.34027855 -54.28952202 68.72596725 -53.97231674 68.09304047 C-51.76926007 63.69908565 -49.5622743 59.30710926 -47.35449219 54.91552734 C-45.13465706 50.4998233 -42.91622313 46.08342558 -40.70125961 41.66527557 C-40.09030182 40.44753036 -39.4786272 39.2301445 -38.86621475 38.01313019 C-36.01472839 32.34589869 -33.18259986 26.68095703 -30.57861328 20.89501953 C-30.22252487 20.10670746 -29.86643646 19.31839539 -29.4995575 18.50619507 C-28.87993766 17.11600562 -28.27330751 15.71989362 -27.68464661 14.3163147 C-25.58101549 9.57574312 -23.19290201 7.2322547 -19.04199219 4.29052734 C-16.73210903 3.54666667 -14.39883274 2.86862031 -12.04199219 2.29052734 C-8.06904795 -0.35810215 -4.61321035 -0.00477377 0 0 Z " fill="#030303" transform="translate(268.0419921875,60.70947265625)"/>
<path d="M0 0 C3.2985039 3.77842479 4.86649607 8.15332367 6.703125 12.75 C7.05825668 13.62434692 7.41338837 14.49869385 7.77928162 15.39953613 C8.94168617 18.2641653 10.09602773 21.13196477 11.25 24 C12.86322188 27.99066439 14.48002516 31.97987113 16.09765625 35.96875 C16.50534744 36.97546753 16.91303864 37.98218506 17.33308411 39.01940918 C20.01747821 45.63174521 22.7630121 52.21521323 25.55859375 58.78125 C25.91190765 59.61422607 26.26522156 60.44720215 26.62924194 61.30541992 C28.64944309 66.06857512 28.64944309 66.06857512 30.69177246 70.82226562 C31.6207717 72.97120866 32.5362024 75.12547897 33.44921875 77.28125 C33.96830811 78.48845703 34.48739746 79.69566406 35.0222168 80.93945312 C36.44790467 85.40198077 35.11434571 88.02182946 33.08095455 92.08418655 C32.67837301 92.89333173 32.27579147 93.70247691 31.86101049 94.53614163 C31.41646428 95.41940838 30.97191807 96.30267512 30.51390076 97.21270752 C30.04343781 98.15534226 29.57297486 99.097977 29.08825547 100.06917644 C27.50591469 103.23716041 25.91786019 106.40224544 24.32983398 109.56738281 C23.19635239 111.83378206 22.06322277 114.10035737 20.93041992 116.36709595 C18.48823648 121.25191873 16.04360238 126.13550256 13.59673882 131.01798248 C10.05898563 138.07723785 6.52565028 145.13869696 2.99339081 152.20070252 C-2.73752444 163.65815528 -8.47201081 175.11381679 -14.20874023 186.56835938 C-19.78157762 197.69567737 -25.35273468 208.82383399 -30.92163086 219.953125 C-31.26487263 220.63908309 -31.6081144 221.32504118 -31.96175743 222.03178588 C-33.6836825 225.47302596 -35.40557452 228.91428258 -37.12745011 232.35554743 C-51.41317643 260.90626515 -65.70535298 289.45374717 -80 318 C-105.08 318 -130.16 318 -156 318 C-154.73795405 314.21386215 -153.67839853 311.10865808 -151.92797852 307.64477539 C-151.52317764 306.8385524 -151.11837677 306.03232941 -150.7013092 305.20167542 C-150.26491623 304.34234909 -149.82852325 303.48302277 -149.37890625 302.59765625 C-148.91951157 301.68406845 -148.46011688 300.77048065 -147.98680115 299.82920837 C-146.51584236 296.90503526 -145.0396002 293.98357505 -143.5625 291.0625 C-137.84272785 279.73423532 -132.1545272 268.39954461 -126.71484375 256.93359375 C-122.49643855 248.04906296 -118.15685512 239.22959819 -113.75 230.4375 C-113.43517607 229.80929792 -113.12035213 229.18109585 -112.79598808 228.53385735 C-110.2078831 223.3715721 -107.61452155 218.21193158 -105.02099609 213.05236816 C-102.76158554 208.55695334 -100.50417255 204.06054385 -98.25 199.5625 C-97.77681335 198.61840775 -97.77681335 198.61840775 -97.29406738 197.65524292 C-93.28105231 189.64172603 -89.34023016 181.59806383 -85.5 173.5 C-81.35492368 164.75909355 -77.08447741 156.08556011 -72.75 147.4375 C-72.4348645 146.80866913 -72.119729 146.17983826 -71.79504395 145.5319519 C-69.20725398 140.37030167 -66.61420319 135.21129824 -64.02099609 130.05236816 C-61.76158554 125.55695334 -59.5041724 121.06054392 -57.25 116.5625 C-56.77675104 115.61828312 -56.77675104 115.61828312 -56.2939415 114.65499115 C-52.28357416 106.64675952 -48.34532484 98.60843576 -44.5078125 90.515625 C-40.33795471 81.72202613 -36.04017441 72.99702599 -31.6796875 64.296875 C-31.2032568 63.34617378 -31.2032568 63.34617378 -30.71720123 62.37626648 C-28.43934595 57.8327307 -26.15757565 53.29116576 -23.875 48.75 C-21.2656388 43.55858897 -18.65790212 38.36637141 -16.0546875 33.171875 C-15.74416191 32.55234451 -15.43363632 31.93281403 -15.11370087 31.29450989 C-9.92472448 20.93311419 -4.88461945 10.50828297 0 0 Z " fill="#FEFEFE" transform="translate(256,96)"/>
<path d="M0 0 C2.81211114 3.58286031 4.51514109 7.27430915 6.1953125 11.48046875 C6.4997226 12.22835159 6.80413269 12.97623444 7.11776733 13.7467804 C7.77808523 15.37084169 8.43574967 16.9959838 9.09106445 18.62207031 C10.50650821 22.13410881 11.93469336 25.6409209 13.36212158 29.14810181 C14.11110147 30.98863814 14.85942293 32.82944253 15.6071167 34.67050171 C19.17460711 43.45007777 22.80228414 52.20415107 26.44134521 60.95425415 C32.66675755 75.92449548 38.84575675 90.91317017 44.98974609 105.91699219 C49.77451646 117.59947241 54.59039834 129.26862778 59.43191528 140.92770386 C65.29624653 155.05092499 71.15680318 169.17578732 76.98144531 183.31542969 C77.69813325 185.05373783 78.41605576 186.79153751 79.13525391 188.52880859 C80.12604693 190.92279887 81.11242605 193.31855984 82.09765625 195.71484375 C82.39362198 196.42732773 82.68958771 197.13981171 82.99452209 197.87388611 C85 202.77160806 85 202.77160806 85 205 C23.29 205 -38.42 205 -102 205 C-96.73888741 193.89320675 -91.48518454 182.8146184 -85.97831726 171.83221436 C-85.56678091 171.0108625 -85.15524456 170.18951065 -84.73123741 169.34326935 C-84.30551256 168.49369408 -83.87978771 167.6441188 -83.44116211 166.76879883 C-82.52341788 164.93359339 -81.6058513 163.0982991 -80.68844604 161.26292419 C-78.23010278 156.34595419 -75.76931893 151.43020949 -73.30804896 146.51470399 C-70.72414044 141.35319635 -68.14254208 136.19053349 -65.5606842 131.02799988 C-60.68581493 121.28135249 -55.80890978 111.53572533 -50.93124729 101.79047555 C-45.37210845 90.6834283 -39.81527833 79.57522657 -34.25862873 68.46693385 C-22.84162946 45.64334948 -11.42177429 22.82119509 0 0 Z " fill="#FEFEFE" transform="translate(303,210)"/>
<path d="M0 0 C20.79 0 41.58 0 63 0 C61.51724397 4.44826809 60.02497928 8.20707992 57.95898438 12.35668945 C57.65954422 12.96068069 57.36010406 13.56467194 57.05158997 14.18696594 C56.06973625 16.16447153 55.08205137 18.13899105 54.09375 20.11328125 C53.40619644 21.49227797 52.71882123 22.87136362 52.03161621 24.25053406 C50.59524746 27.13071069 49.15581149 30.00932917 47.71435547 32.88696289 C45.86475827 36.58033678 44.02434123 40.27820133 42.1863327 43.9773531 C40.77160596 46.82150336 39.35137753 49.66287852 37.92951965 52.50346947 C37.24824416 53.86653476 36.56886562 55.23054985 35.8914032 56.5955143 C34.94696031 58.49668086 33.99502183 60.39390168 33.04101562 62.2902832 C32.50077759 63.3713887 31.96053955 64.4524942 31.40393066 65.56636047 C30 68 30 68 28 69 C12.69020798 32.73427226 12.69020798 32.73427226 5.78283691 16.12997437 C5.00955313 14.27294173 4.23282498 12.41734456 3.45605469 10.56176758 C2.99618164 9.45341553 2.53630859 8.34506348 2.0625 7.203125 C1.46115234 5.75921387 1.46115234 5.75921387 0.84765625 4.28613281 C0 2 0 2 0 0 Z " fill="#FDFDFD" transform="translate(277,84)"/>
</svg>
